<?xml version="1.0" encoding="utf-8"?>
<!-- Generator: Adobe Illustrator 26.0.2, SVG Export Plug-In . SVG Version: 6.00 Build 0)  -->
<svg version="1.1" id="Layer_1" xmlns="http://www.w3.org/2000/svg" xmlns:xlink="http://www.w3.org/1999/xlink" x="0px" y="0px"
	 viewBox="0 0 20 20" style="enable-background:new 0 0 20 20;" xml:space="preserve">
<style type="text/css">
	.st0{fill:#FFFFFF;}
	.st1{fill-rule:evenodd;clip-rule:evenodd;fill:#3E78C3;}
</style>
<g>
	<circle class="st0" cx="9.99" cy="10" r="10.01"/>
	<path class="st1" d="M9.99-0.01C4.47-0.01-0.01,4.5-0.01,10.06c0,5.02,3.66,9.19,8.44,9.94v-7.03H5.89v-2.91h2.54V7.84
		c0-2.52,1.49-3.92,3.78-3.92c1.09,0,2.24,0.2,2.24,0.2V6.6h-1.26c-1.24,0-1.63,0.78-1.63,1.57v1.89h2.78l-0.44,2.91h-2.33v7.03
		c4.78-0.76,8.44-4.92,8.44-9.94C20,4.5,15.52-0.01,9.99-0.01z"/>
	<circle class="st0" cx="9.99" cy="10" r="10.01"/>
	<path class="st1" d="M9.99-0.01C4.47-0.01-0.01,4.5-0.01,10.06c0,5.02,3.66,9.19,8.44,9.94v-7.03H5.89v-2.91h2.54V7.84
		c0-2.52,1.49-3.92,3.78-3.92c1.09,0,2.24,0.2,2.24,0.2V6.6h-1.26c-1.24,0-1.63,0.78-1.63,1.57v1.89h2.78l-0.44,2.91h-2.33v7.03
		c4.78-0.76,8.44-4.92,8.44-9.94C20,4.5,15.52-0.01,9.99-0.01z"/>
</g>
</svg>
