<?xml version="1.0" encoding="utf-8"?>
<!-- Generator: Adobe Illustrator 26.0.2, SVG Export Plug-In . SVG Version: 6.00 Build 0)  -->
<svg version="1.1" id="Layer_1" xmlns="http://www.w3.org/2000/svg" xmlns:xlink="http://www.w3.org/1999/xlink" x="0px" y="0px"
	 viewBox="0 0 20 20" style="enable-background:new 0 0 20 20;" xml:space="preserve">
<style type="text/css">
	.st0{fill:none;stroke:#0F1111;stroke-width:2;stroke-linecap:round;}
</style>
<g>
	<path class="st0" d="M11.61,9.14c0.2,0.11,0,0,0.17,0.16c1.11,1.04,1.1,2.73,0,3.77l-2.01,1.89c-1.11,1.04-2.9,1.04-4,0
		c-1.11-1.04-1.1-2.73,0-3.77l0,0l0,0"/>
	<path class="st0" d="M8.7,10.67c-0.2-0.11,0,0-0.17-0.16c-1.11-1.04-1.1-2.73,0-3.77l2.01-1.89c1.11-1.04,2.9-1.04,4,0
		c1.11,1.04,1.1,2.73,0,3.77l0,0l0,0"/>
</g>
</svg>
