<?xml version="1.0" encoding="utf-8"?>
<!-- Generator: Adobe Illustrator 26.0.2, SVG Export Plug-In . SVG Version: 6.00 Build 0)  -->
<svg version="1.1" id="Layer_1" xmlns="http://www.w3.org/2000/svg" xmlns:xlink="http://www.w3.org/1999/xlink" x="0px" y="0px"
	 viewBox="0 0 20 20" style="enable-background:new 0 0 20 20;" xml:space="preserve">
<style type="text/css">
	.st0{fill:#C0122D;}
</style>
<path class="st0" d="M0,10c0,4.24,2.64,7.86,6.36,9.32c-0.09-0.79-0.17-2.01,0.03-2.87c0.18-0.78,1.17-4.97,1.17-4.97
	s-0.3-0.6-0.3-1.48c0-1.39,0.81-2.43,1.81-2.43c0.85,0,1.27,0.64,1.27,1.41c0,0.86-0.55,2.14-0.83,3.33c-0.24,1,0.5,1.81,1.48,1.81
	c1.78,0,3.14-1.87,3.14-4.58c0-2.39-1.72-4.07-4.18-4.07c-2.85,0-4.52,2.13-4.52,4.34c0,0.86,0.33,1.78,0.74,2.28
	c0.08,0.1,0.09,0.19,0.07,0.29c-0.08,0.32-0.24,1-0.28,1.13c-0.04,0.18-0.14,0.22-0.33,0.13c-1.25-0.58-2.03-2.41-2.03-3.87
	c0-3.15,2.29-6.05,6.61-6.05c3.47,0,6.16,2.47,6.16,5.78c0,3.45-2.17,6.22-5.19,6.22c-1.01,0-1.97-0.53-2.29-1.15
	c0,0-0.5,1.91-0.62,2.38c-0.23,0.87-0.84,1.96-1.24,2.62C7.97,19.84,8.97,20,10,20c5.52,0,10-4.48,10-10c0-5.52-4.48-10-10-10
	C4.48,0,0,4.48,0,10z"/>
</svg>
