<?xml version="1.0" encoding="utf-8"?>
<!-- Generator: Adobe Illustrator 26.0.2, SVG Export Plug-In . SVG Version: 6.00 Build 0)  -->
<svg version="1.1" id="Layer_1" xmlns="http://www.w3.org/2000/svg" xmlns:xlink="http://www.w3.org/1999/xlink" x="0px" y="0px"
	 viewBox="0 0 20 20" style="enable-background:new 0 0 20 20;" xml:space="preserve">
<style type="text/css">
	.st0{fill:#1B9DF0;}
	.st1{fill:#FFFFFF;}
</style>
<g>
	<path class="st0" d="M9.99,20.01C15.52,20.01,20,15.53,20,10C20,4.47,15.52-0.01,9.99-0.01C4.47-0.01-0.01,4.47-0.01,10
		C-0.01,15.53,4.47,20.01,9.99,20.01z"/>
	<path class="st1" d="M7.81,14.78c4.44,0,6.86-3.68,6.86-6.86c0-0.11,0-0.21-0.01-0.31c0.47-0.34,0.88-0.77,1.21-1.25
		c-0.43,0.19-0.9,0.32-1.39,0.38c0.5-0.3,0.88-0.77,1.06-1.34c-0.47,0.28-0.98,0.48-1.53,0.59c-0.44-0.47-1.07-0.76-1.76-0.76
		c-1.33,0-2.41,1.08-2.41,2.41c0,0.19,0.02,0.38,0.07,0.55C7.9,8.08,6.12,7.12,4.93,5.66C4.73,6.02,4.61,6.43,4.61,6.87
		c0,0.84,0.43,1.58,1.08,2.01c-0.4-0.01-0.77-0.12-1.09-0.3c0,0.01,0,0.02,0,0.03c0,1.17,0.83,2.14,1.94,2.37
		c-0.2,0.06-0.42,0.09-0.64,0.09c-0.16,0-0.31-0.02-0.46-0.05c0.31,0.96,1.2,1.66,2.25,1.68c-0.83,0.65-1.87,1.03-3,1.03
		c-0.2,0-0.39-0.01-0.58-0.04C5.17,14.38,6.45,14.78,7.81,14.78z"/>
</g>
</svg>
